<?xml version="1.0" encoding="utf-8"?>
<!-- Generator: Adobe Illustrator 26.5.0, SVG Export Plug-In . SVG Version: 6.00 Build 0)  -->
<svg version="1.1" id="logo" xmlns="http://www.w3.org/2000/svg" xmlns:xlink="http://www.w3.org/1999/xlink" x="0px" y="0px"
	 viewBox="0 0 180 180" style="enable-background:new 0 0 180 180;" xml:space="preserve">
<style type="text/css">
	.st0{fill:#B76C58;}
	.st1{font-family:'Giaza';}
	.st2{font-size:60px;}
	.st3{clip-path:url(#SVGID_00000005981956813477919140000011540411860121727401_);}
	.st4{clip-path:url(#SVGID_00000066510336637815124470000008190805835156295102_);fill:none;stroke:#B76D59;stroke-miterlimit:10;}
	.st5{fill:none;stroke:#B76C58;stroke-miterlimit:10;}
</style>
<g id="Floral">
	<g>
		<g>
			<path class="st0" d="M99.8,137.7c3.1-0.5,4.6-0.9,7.5-1.9c0.3,0.7,0.4,1,0.7,1.7c-0.1,0-0.2,0.1-0.3,0.1
				c-0.6-0.5-1.1-0.8-1.6-0.8c-0.5-0.1-1.3,0-2.2,0.3c-0.2,0-0.2,0.1-0.4,0.1c0.3,1.1,0.4,1.7,0.7,2.8c0.3-0.1,0.4-0.1,0.7-0.2
				c0.5-0.1,0.9-0.3,1.1-0.6c0.3-0.3,0.4-0.6,0.4-1c0.1,0,0.1,0,0.2-0.1c0.3,1,0.5,1.5,0.8,2.5c-0.1,0-0.2,0-0.3,0.1
				c-0.3-0.4-0.6-0.6-1-0.7c-0.3-0.1-0.8-0.1-1.3,0.1c-0.3,0.1-0.4,0.1-0.7,0.2c0.3,1.1,0.4,1.6,0.7,2.6c0.8-0.2,1.2-0.3,2-0.5
				c0,0.1,0,0.1,0.1,0.2c-2.5,0.7-3.7,1-6.3,1.4c0-0.1,0-0.1,0-0.2c0.4-0.1,0.6-0.1,1-0.2c-0.4-2.3-0.6-3.5-1.1-5.8
				c-0.4,0.1-0.5,0.1-0.9,0.2C99.8,137.8,99.8,137.7,99.8,137.7z"/>
			<path class="st0" d="M108.3,135.4c2-0.7,3-1.2,4.9-2.1c0,0.1,0.1,0.1,0.1,0.2c-0.6,0.3-0.8,0.4-1.4,0.7c1,2.1,1.5,3.2,2.5,5.3
				c0.2-0.1,0.3-0.2,0.5-0.3c0.8-0.4,1.4-0.9,1.8-1.4c0.3-0.5,0.6-1.2,0.8-2.1c0.1-0.1,0.2-0.1,0.3-0.2c0.3,0.8,0.5,1.2,0.8,2
				c-3,1.7-4.7,2.5-8,3.7c0-0.1,0-0.1-0.1-0.2c0.4-0.1,0.6-0.2,0.9-0.3c-0.9-2.2-1.3-3.3-2.1-5.5c-0.3,0.1-0.5,0.2-0.8,0.3
				C108.4,135.5,108.4,135.5,108.3,135.4z"/>
			<path class="st0" d="M124.2,133.9c-1.5,1.1-2.8,1.6-3.8,1.7c-1,0-1.8-0.4-2.4-1.3c-0.5-0.9-0.6-1.8-0.1-2.8
				c0.4-1,1.3-1.9,2.5-2.8c1.2-0.9,2.3-1.5,3.3-1.6c1-0.1,1.8,0.2,2.5,0.9c0.7,0.7,0.9,1.6,0.6,2.7
				C126.5,131.7,125.6,132.8,124.2,133.9z M124,130.4c-0.2-0.2-0.3-0.3-0.4-0.5c-0.7-0.8-1.2-1.3-1.5-1.4c-0.4-0.1-0.7-0.1-1,0
				c-0.2,0.1-0.4,0.2-0.6,0.4c-0.2,0.2-0.4,0.3-0.6,0.5c-0.1,0.2-0.2,0.3-0.3,0.5c0,0.2-0.1,0.3-0.1,0.5c0,0.2,0.1,0.4,0.2,0.6
				c0.1,0.3,0.4,0.8,0.8,1.3c0.1,0.2,0.2,0.3,0.4,0.5c0.4,0.6,0.8,1,1,1.2c0.3,0.2,0.5,0.3,0.7,0.3c0.4,0,1-0.1,1.5-0.6
				c0.7-0.5,1-1,1-1.5C125,131.8,124.6,131.1,124,130.4z"/>
			<path class="st0" d="M130.1,123.8c-0.2,0.3-0.3,0.4-0.5,0.6c0.9,0.8,1.4,1.2,2.3,2c0.3-0.3,0.4-0.5,0.7-0.8
				c0.1,0,0.1,0.1,0.1,0.1c-1.4,1.6-2.1,2.4-3.6,3.9c0,0-0.1-0.1-0.1-0.1c0.3-0.3,0.5-0.4,0.8-0.7c-1.7-1.7-2.5-2.5-4.2-4.2
				c-0.3,0.3-0.4,0.4-0.7,0.7c0,0-0.1-0.1-0.1-0.1c1.3-1.2,1.9-1.9,3-3.2c0.8-1,1.4-1.6,1.8-2c0.4-0.4,0.7-0.6,0.9-0.7
				c0.5-0.2,0.9-0.2,1.3,0.1c0.4,0.3,0.6,0.7,0.5,1.1c-0.1,0.5-0.4,1.1-0.9,1.8c0,0,0,0,0,0c0.6-0.6,1-1,1.4-1.1
				c0.4-0.1,0.8-0.1,1.2,0.2c0.2,0.1,0.2,0.2,0.4,0.3c0.3,0.2,0.4,0.3,0.6,0.3c0.1,0,0.2-0.1,0.4-0.2c0.1-0.2,0.2-0.3,0.1-0.5
				c0-0.1-0.1-0.4-0.3-0.6c0.1-0.1,0.1-0.1,0.2-0.2c0.4,0.4,0.5,0.7,0.5,1.1c0,0.3-0.3,0.9-0.8,1.6c-0.5,0.7-1,1.2-1.4,1.3
				c-0.4,0.2-0.9,0-1.4-0.4c-0.2-0.2-0.3-0.2-0.5-0.4c-0.3-0.2-0.5-0.3-0.7-0.3C130.6,123.4,130.3,123.5,130.1,123.8z M127.3,122.5
				c0.8,0.7,1.2,1.1,2.1,1.8c0.1-0.1,0.2-0.2,0.3-0.4c0.4-0.4,0.6-0.8,0.6-1.2c0-0.3-0.2-0.7-0.5-1c-0.1-0.1-0.1-0.1-0.2-0.2
				c-0.4-0.3-0.7-0.4-1-0.3c-0.3,0.1-0.6,0.4-1,0.8C127.5,122.3,127.5,122.4,127.3,122.5z"/>
			<path class="st0" d="M139.6,114.6c-0.9,0.1-1.4,0.1-2.3,0.2c-0.6,1.1-0.9,1.7-1.5,2.8c0.4,0.8,0.6,1.2,1,2.1
				c0.3-0.4,0.4-0.6,0.6-1.1c0.1,0,0.1,0.1,0.1,0.1c-0.5,0.9-0.8,1.3-1.3,2.1c-0.1,0-0.1-0.1-0.1-0.1c0.2-0.3,0.3-0.4,0.4-0.6
				c-1.2-2.7-1.8-4-3.3-6.5c0.2-0.4,0.3-0.6,0.5-1.1c2.9-0.2,4.3-0.4,7.2-1.1c0.1-0.3,0.2-0.4,0.3-0.7c0.1,0,0.1,0,0.2,0.1
				c-0.8,2-1.2,3-2.2,5c-0.1,0-0.1,0-0.2-0.1C139.3,115.3,139.4,115,139.6,114.6z M134.4,114.9c0.5,0.9,0.8,1.4,1.3,2.4
				c0.6-1,0.9-1.5,1.4-2.5C136,114.9,135.5,114.9,134.4,114.9z"/>
			<path class="st0" d="M135.8,108.1c0.7-2,1.1-3,1.6-5.1c0.1,0,0.1,0,0.2,0c-0.2,0.6-0.2,0.9-0.4,1.5c2.3,0.6,3.4,1,5.6,1.6
				c0.1-0.2,0.1-0.4,0.2-0.6c0.3-0.9,0.3-1.7,0.1-2.3c-0.2-0.6-0.5-1.3-1.1-2c0-0.1,0-0.2,0.1-0.3c0.8,0.3,1.2,0.4,2,0.7
				c-0.7,3.6-1.2,5.3-2.4,8.7c-0.1,0-0.1,0-0.2-0.1c0.1-0.4,0.2-0.6,0.3-0.9c-2.2-0.8-3.3-1.2-5.5-2c-0.1,0.3-0.2,0.5-0.3,0.8
				C135.9,108.2,135.8,108.2,135.8,108.1z"/>
		</g>
	</g>
</g>
<g id="NV">
	<text transform="matrix(1 0 0 1 54 108)" class="st0 st1 st2">NV</text>
</g>
<g id="branch">
	<g>
		<g>
			<defs>
				
					<rect id="SVGID_1_" x="10.3" y="21" transform="matrix(0.1171 -0.9931 0.9931 0.1171 -16.2138 105.2197)" width="81.5" height="81.5"/>
			</defs>
			<clipPath id="SVGID_00000147941763045312417750000000904494451242327197_">
				<use xlink:href="#SVGID_1_"  style="overflow:visible;"/>
			</clipPath>
			<g style="clip-path:url(#SVGID_00000147941763045312417750000000904494451242327197_);">
				<defs>
					
						<rect id="SVGID_00000012464442361362268720000007954507754883942588_" x="10.3" y="21" transform="matrix(0.1171 -0.9931 0.9931 0.1171 -16.2138 105.2197)" width="81.5" height="81.5"/>
				</defs>
				<clipPath id="SVGID_00000145019755199398690210000010890695694084272813_">
					<use xlink:href="#SVGID_00000012464442361362268720000007954507754883942588_"  style="overflow:visible;"/>
				</clipPath>
				
					<path style="clip-path:url(#SVGID_00000145019755199398690210000010890695694084272813_);fill:none;stroke:#B76D59;stroke-miterlimit:10;" d="
					M56.5,47.8c1.3-2.8,3-4.2,4-4.8c1-0.7,2-1.1,2.7-1.4c2-0.9,3.7-1.2,4.4-1.3c1.9-0.3,2.3,0,4.2-0.2c1.1-0.1,2.8-0.3,4.9-1.1
					c-1.9,1-3.2,2.1-4.1,2.8c-1.5,1.2-1.9,1.8-3.8,3.2c-1.4,1.1-2.1,1.6-3.2,2.1c-1.3,0.5-2.4,0.6-3.9,0.8
					C60.4,48,58.6,48,56.5,47.8z"/>
				
					<path style="clip-path:url(#SVGID_00000145019755199398690210000010890695694084272813_);fill:none;stroke:#B76D59;stroke-miterlimit:10;" d="
					M46.1,59c1.1-1.6,2.3-2.6,3.1-3.2c1.1-0.7,2-1.1,2.6-1.3c1.1-0.4,2-0.6,3.8-0.9c2.7-0.5,2.5-0.3,3.3-0.6
					c1.6-0.5,1.9-1.2,3.9-2.1c0.3-0.2,1.3-0.6,2.7-1c1.6-0.5,3.1-0.7,4.2-0.9c-1.5,0.9-2.7,1.8-3.4,2.4c-1,0.8-1.3,1.3-2.7,2.5
					c-1.3,1.1-2,1.6-2.2,1.8c-1.2,0.9-1.9,1.3-2.8,1.6c-0.5,0.2-1.4,0.2-3,0.3c-1.9,0.1-2.2,0.1-3.1,0.2c-0.8,0.1-2,0.2-3.5,0.5
					C48,58.6,47,58.8,46.1,59z"/>
				
					<path style="clip-path:url(#SVGID_00000145019755199398690210000010890695694084272813_);fill:none;stroke:#B76D59;stroke-miterlimit:10;" d="
					M40,71.5c0.7-0.4,1.8-1.1,3-2.1c0.2-0.2,0.5-0.4,2.6-2.5c1.6-1.6,2.2-2.3,3.4-3.1c0.9-0.7,1.4-1,1.8-1.1c1.1-0.5,2-0.7,2.7-0.8
					c1.5-0.2,1.8,0.1,3.3,0c0.7-0.1,1.8-0.2,3.1-0.7c-0.8,0.6-1.8,1.2-2.8,2.1c-0.9,0.8-1.1,1-1.8,1.5c-1,0.7-1.7,1.1-3.1,1.8
					c-3.1,1.6-3,1.8-3.9,2.1c-1.3,0.5-1.7,0.4-3.2,0.8C43.7,69.8,42,70.4,40,71.5z"/>
				
					<path style="clip-path:url(#SVGID_00000145019755199398690210000010890695694084272813_);fill:none;stroke:#B76D59;stroke-miterlimit:10;" d="
					M47.6,55.7c-0.1-1.9-0.2-3.5-0.3-4.8c-0.1-3.1,0-4.1,0.2-5.1c0.2-1.1,0.4-2,1-3c1.1-1.7,2.5-2.2,4.5-3.5c1.2-0.8,2.9-2,4.7-3.9
					c-1.7,1.9-2.8,3.6-3.6,4.9c-0.7,1.2-1.1,1.9-1.4,3c-0.5,1.7-0.3,2.5-0.8,4.8c-0.1,0.5-0.4,1.7-0.9,2.9
					C50.5,52,49.6,53.8,47.6,55.7z"/>
				
					<path style="clip-path:url(#SVGID_00000145019755199398690210000010890695694084272813_);fill:none;stroke:#B76D59;stroke-miterlimit:10;" d="
					M41,66.6c0-1.7-0.3-3-0.5-3.9C40,60.6,39,58.8,38.6,58c-0.7-1.2-0.9-1.5-1.3-2.6c-0.2-0.6-0.6-1.7-0.6-3.1
					c0-1.3,0.3-2.2,0.8-3.4c0.6-1.6,1.5-3.6,2.6-5.9c-0.6,2.9-0.6,5.3-0.4,6.9c0.1,1.3,0.3,2.5,0.9,4c0.5,1.3,0.8,1.4,1.5,3.2
					c0.5,1.2,0.8,2.1,1,3.4c0,0.5,0.1,1.6-0.2,2.8C42.5,64.9,41.6,66,41,66.6z"/>
				
					<path style="clip-path:url(#SVGID_00000145019755199398690210000010890695694084272813_);fill:none;stroke:#B76D59;stroke-miterlimit:10;" d="
					M34.4,76.4c-0.8-1.3-1.3-2.5-1.6-3.3c-0.5-1.2-0.8-2.1-1-3.2c-0.2-1.4,0-2.6,0.1-3.1c0.2-1.4,0.5-1.4,0.7-2.9
					c0.1-0.9,0.3-1.8,0.1-3c-0.1-0.7-0.4-1.9-0.4-1.9s-0.2-0.5-0.2-0.5c-0.1-0.3-0.6-0.8-1.9-2c0.9,0.4,3.3,1.6,4.7,4.2
					c0.9,1.9,1,3.7,1,4.5c0,1.2-0.2,2.3-0.4,3.3c-0.2,1.2-0.4,1.8-0.7,3.4c-0.1,0.9-0.2,1.5-0.2,1.6C34.4,74.7,34.4,75.7,34.4,76.4z
					"/>
				
					<path style="clip-path:url(#SVGID_00000145019755199398690210000010890695694084272813_);fill:none;stroke:#B76D59;stroke-miterlimit:10;" d="
					M36.7,94.1c0,0-0.6-33,19.8-46.4"/>
				
					<line style="clip-path:url(#SVGID_00000145019755199398690210000010890695694084272813_);fill:none;stroke:#B76D59;stroke-miterlimit:10;" x1="38" y1="80.3" x2="40.1" y2="78.8"/>
				
					<path style="clip-path:url(#SVGID_00000145019755199398690210000010890695694084272813_);fill:none;stroke:#B76D59;stroke-miterlimit:10;" d="
					M68.8,41.6c-0.5,0-1.1,0-1.8,0.3c-0.6,0.3-0.7,0.6-1.5,1.3c-0.7,0.6-1.3,1-2.1,1.5c-1.1,0.7-1.7,1.1-2.2,1.2
					c-0.5,0.1-0.8,0-1.4,0.2c-0.6,0.2-0.9,0.6-1.2,0.8"/>
				
					<path style="clip-path:url(#SVGID_00000145019755199398690210000010890695694084272813_);fill:none;stroke:#B76D59;stroke-miterlimit:10;" d="
					M51.1,42.4c-0.3,0.5-0.7,1.2-1.1,2c-0.3,0.6-0.4,1-0.5,1.3c-0.3,0.9-0.4,1.6-0.5,2.4c-0.4,2.4-0.3,3-0.6,4.6
					c-0.2,0.8-0.3,1.5-0.5,1.9"/>
				
					<path style="clip-path:url(#SVGID_00000145019755199398690210000010890695694084272813_);fill:none;stroke:#B76D59;stroke-miterlimit:10;" d="
					M62,53c-0.4,0.2-1.1,0.5-1.8,1c-0.7,0.5-0.9,0.7-1.4,1c-0.4,0.2-0.7,0.3-2.3,0.7c-1.6,0.4-2.8,0.6-3,0.6
					c-1.4,0.3-1.6,0.2-2.3,0.4c-1.3,0.3-2,0.5-2.6,0.8c-0.5,0.2-0.8,0.4-1.1,0.5"/>
				
					<path style="clip-path:url(#SVGID_00000145019755199398690210000010890695694084272813_);fill:none;stroke:#B76D59;stroke-miterlimit:10;" d="
					M38.5,52.7c0.4,1.9,0.9,3.3,1.3,4.3c0.4,1.1,0.7,2.2,1.2,3.3c0.4,1,0.6,1.6,0.7,2.5c0.1,0.9,0,1.7-0.2,2.1"/>
				
					<path style="clip-path:url(#SVGID_00000145019755199398690210000010890695694084272813_);fill:none;stroke:#B76D59;stroke-miterlimit:10;" d="
					M54.1,63.2c-1.1,0.3-1.9,0.8-2.4,1.1c-1.1,0.7-1.2,1.1-2.4,1.8c-1.1,0.6-1.2,0.4-2.2,1.1c-0.7,0.5-1,0.8-1.9,1.3
					c-0.5,0.3-1,0.6-1.3,0.7"/>
				
					<path style="clip-path:url(#SVGID_00000145019755199398690210000010890695694084272813_);fill:none;stroke:#B76D59;stroke-miterlimit:10;" d="
					M33.9,61.6c0.2,1.6,0.1,2.8-0.1,3.6c-0.1,0.6-0.2,0.7-0.3,1.3c-0.2,1.2-0.1,2,0,3.3c0.1,1.7-0.1,2.1,0.1,3.2
					c0.1,0.6,0.2,1.1,0.3,1.4"/>
				
					<path style="clip-path:url(#SVGID_00000145019755199398690210000010890695694084272813_);fill:none;stroke:#B76D59;stroke-miterlimit:10;" d="
					M34.7,77.1c0.4,2,1.1,4.2,2.2,6.3c0.1,0.2,0.2,0.3,0.3,0.5"/>
			</g>
		</g>
	</g>
</g>
<g id="Circle">
	<path class="st5" d="M79.1,37.1C82.6,36.4,86.3,36,90,36c29.8,0,54,24.2,54,54c0,2.7-0.2,5.4-0.6,8.1"/>
	<path class="st5" d="M98.6,143.3c-2.8,0.5-5.7,0.7-8.6,0.7c-26.7,0-48.8-19.3-53.2-44.7"/>
</g>
</svg>
